# xmcd
#
# Track frame offsets: 
#        150
#        3560
#        15303
#        30063
#        42305
#        53866
#        64862
#        73917
#        82880
#        93168
#        106938
#        115801
#        128884
#        143131
#        162369
#        172104
#        182349
#        193585
#        205849
#
# Disc length: 2877 seconds
#
# Revision: 1
# Processed by: cddbd v1.5.2PL0 Copyright (c) Steve Scherf et al.
# Submitted via: ExactAudioCopy v0.99pb5
#
DISCID=f40b3b13
DTITLE=Various Artist - The Flow
DYEAR=1997
DGENRE=Latin
TTITLE0=Mr. Notty - Intro
TTITLE1=Alberto Stylee - Vengo Acabando
TTITLE2=Mr. Notty - Sentencia
TTITLE3=Miguel Play - Brinquen
TTITLE4=Michael Y Manuel - Shailen
TTITLE5=Tito Y Hector - Quieren Imitarme
TTITLE6=Danny Banton - Buscan La Manera
TTITLE7=Eddie Dee - Es Hora De Escuchar
TTITLE8=Hornyman and Pantyman - Aceveracion
TTITLE9=Bebe - Pesadilla
TTITLE10=Winchester Yankee - Donde Estan
TTITLE11=Rey Pirin and Alberto Stylee - Enemigo
TTITLE12=Sr. Duke - My Stylo
TTITLE13=Baby Rasta Y Miguel Play - 40 45
TTITLE14=Cabalucci - Voodoo
TTITLE15=Gringo Y Javy The Kid - Coo Una Bala
TTITLE16=Mr. Notty, Winchester Yankee Y Yaviah - El Trio
TTITLE17=Bigademus - Girl Is True
TTITLE18=El Gran Camaleon - Campeon
EXTD=
EXTT0=
EXTT1=
EXTT2=
EXTT3=
EXTT4=
EXTT5=
EXTT6=
EXTT7=
EXTT8=
EXTT9=
EXTT10=
EXTT11=
EXTT12=
EXTT13=
EXTT14=
EXTT15=
EXTT16=
EXTT17=
EXTT18=
PLAYORDER=
